<svg xmlns="http://www.w3.org/2000/svg" viewBox="0 0 512 512" role="img" aria-label="World Cup Calendar app icon">
  <rect width="512" height="512" rx="108" fill="#0f172a"/>
  <path d="M256 0h256v226L374 282z" fill="#1e40af"/>
  <path d="M0 358l144 154H0z" fill="#0891b2" opacity=".9"/>
  <rect x="112" y="132" width="288" height="242" rx="42" fill="#f8fafc"/>
  <path d="M112 174c0-23.2 18.8-42 42-42h204c23.2 0 42 18.8 42 42v32H112z" fill="#3b82f6"/>
  <rect x="172" y="102" width="32" height="62" rx="12" fill="#e2e8f0"/>
  <rect x="308" y="102" width="32" height="62" rx="12" fill="#e2e8f0"/>
  <rect x="166" y="248" width="180" height="18" rx="9" fill="#64748b"/>
  <rect x="166" y="304" width="180" height="18" rx="9" fill="#64748b"/>
  <circle cx="174" cy="353" r="13" fill="#0ea5e9"/>
  <circle cx="256" cy="353" r="13" fill="#0ea5e9"/>
  <circle cx="338" cy="353" r="13" fill="#0ea5e9"/>
</svg>
