<svg xmlns="http://www.w3.org/2000/svg" viewBox="0 0 512 512" role="img" aria-label="Soccer ball app icon">
  <defs>
    <linearGradient id="bg" x1="96" y1="40" x2="416" y2="472" gradientUnits="userSpaceOnUse">
      <stop offset="0" stop-color="#020617"/>
      <stop offset="1" stop-color="#059669"/>
    </linearGradient>
    <filter id="shadow" x="-20%" y="-20%" width="140%" height="140%">
      <feDropShadow dx="0" dy="18" stdDeviation="16" flood-color="#020617" flood-opacity="0.28"/>
    </filter>
  </defs>
  <rect width="512" height="512" rx="112" fill="url(#bg)"/>
  <circle cx="256" cy="256" r="164" fill="#ffffff" filter="url(#shadow)"/>
  <path d="M256 148 319 194 295 268H217L193 194Z" fill="#020617"/>
  <path d="M140 236 193 194 217 268 172 315 126 300Z" fill="#020617"/>
  <path d="M372 236 319 194 295 268 340 315 386 300Z" fill="#020617"/>
  <path d="M197 364 172 315 217 268H295L340 315 315 364Z" fill="#020617"/>
  <path d="M256 148V92M193 194 147 142M319 194 365 142M126 300 82 320M386 300 430 320M197 364 166 414M315 364 346 414" fill="none" stroke="#020617" stroke-width="18" stroke-linecap="round" stroke-linejoin="round"/>
  <circle cx="256" cy="256" r="164" fill="none" stroke="#f8fafc" stroke-width="14"/>
</svg>
